<svg width="64" height="64" viewBox="0 0 64 64" fill="none" xmlns="http://www.w3.org/2000/svg">
<g clip-path="url(#clip0_210_2)">
<path d="M8.99109 0.996948L55.0014 1.00098V58.9864H8.99209L8.99109 0.996948Z" fill="#FAFAFA"/>
<path d="M8.50055 0.488342L55.5003 0.492365V59.4898H8.50055V0.488342Z" stroke="#4F6698" stroke-opacity="0.267" stroke-width="0.999644" stroke-linejoin="round"/>
<path d="M15.999 8.99926V10.0009H19.189V8.99548L15.999 8.99926ZM19.6085 8.99926V10.0009H22.6322V8.99548L19.6085 8.99926ZM23.048 8.99926V10.0009H25.6937V8.99548L23.048 8.99926ZM26.1132 8.99926V10.0009H27.2887V8.99548L26.1132 8.99926ZM27.7082 8.99926V10.0009H30.3086V8.99548L27.7082 8.99926ZM30.7697 8.99926V10.0009H37.4861V8.99548L30.7697 8.99926ZM15.999 12.0003V13.0019H21.0788V12.0003H15.999ZM21.5815 12.0003V13.0019H24.0156V12.0003H21.5815ZM24.4767 12.0003V13.0019H25.6106V12.0003H24.4767ZM26.1132 12.0003V13.0019H28.2978V12.0003H26.1132ZM28.7968 12.0003V13.0019H30.9814V12.0003H28.7968ZM31.4425 12.0003V13.0019H35.0104V12.0003H31.4425ZM35.5131 12.0003V13.0019H40.1734V12.0003H35.5131ZM15.999 15.0013V15.9991H21.6231V15.0051L15.999 15.0013ZM22.0464 15.0013V15.9991H28.0824V15.0051L22.0464 15.0013ZM15.999 17.9985V19.0001H19.1059V17.9985H15.999ZM19.5254 17.9985V19.0001H22.4206V17.9985H19.5254ZM22.8401 17.9985V19.0001H25.3989V17.9985H22.8401ZM28.0862 33.0035V34.0013H31.2346V32.996L28.0862 33.0035ZM31.6541 33.0035V34.0013H34.5909V32.996L31.6541 33.0035ZM35.0104 33.0035V34.0013H37.4861V32.996L35.0104 33.0035ZM28.0862 36.0007V37.0023H30.6034V36.0007H28.0862ZM31.0229 36.0007V37.0023H37.4861V36.0007H31.0229ZM37.9056 36.0007V37.0023H42.8569V36.0007H37.9056ZM28.0862 39.0017V39.9996H31.3593V39.0017H28.0862ZM31.8204 39.0017V39.9996H37.5692V39.0017H31.8204ZM37.9887 39.0017V39.9996H41.9347V39.0017H37.9887ZM28.0862 41.999V43.0006H30.6034V41.999H28.0862ZM31.0229 41.999V43.0006H33.5855V41.999H31.0229ZM34.005 41.999V43.0006H37.6561V41.999H34.005ZM38.0757 41.999V43.0006H38.8316V41.999H38.0757ZM39.2474 41.999V43.0006H43.9908V41.999H39.2474ZM28.0068 51.002V51.9998H31.28V51.002H28.0068ZM31.6995 51.002V51.9998H34.7232V51.002H31.6995ZM35.1805 51.002V51.9998H37.7846V51.002H35.1805ZM38.2042 51.002V51.9998H42.358V51.002H38.2042ZM42.8191 51.002V51.9998H49.577V51.002H42.8191ZM15.999 20.9995V22.0011H20.1112V20.9995H15.999ZM15.999 24.0005V25.0021H20.1566V24.0005H15.999ZM20.5761 20.9995V22.0011H28.0824V20.9995H20.5761ZM20.6139 24.0005V25.0021H27.455V24.0005H20.6139ZM22.2127 45V46.0016H28.381V45H22.2127ZM28.8421 45V46.0016H31.2762V45H28.8421ZM31.7373 45V46.0016H37.5276V45H31.7373ZM37.9887 45V46.0016H41.9762V45H37.9887ZM42.3958 45V46.0016H43.9492V45H42.3958ZM44.4103 45V46.0016H45.3325V45H44.4103ZM45.752 45V46.0016H48.2277V45H45.752ZM24.2272 48.001V49.0026H25.3157V48.001H24.2272ZM25.6106 48.001V49.0026H27.7914V48.001H25.6106ZM28.1278 48.001V49.0026H30.3086V48.001H28.1278ZM30.9814 48.001V49.0026H34.4662V48.001H30.9814ZM34.8857 48.001V49.0026H39.4174V48.001H34.8857ZM40.0449 48.001V49.0026H43.1063V48.001H40.0449ZM43.4843 48.001V49.0026H44.2024V48.001H43.4843ZM15.999 51.002H20.081V51.9998H15.999V51.002ZM19.6917 27.0015V27.9993H22.7154V27.0015H19.6917ZM15.999 29.9987V31.0003H17.3446V29.9987H15.999ZM20.2397 32.9997V34.0013H22.7154V32.996L20.2397 32.9997ZM20.406 36.0007V37.0023H24.0571V36.0007H20.406ZM19.9449 39.0017V39.9996H22.7154V39.0017H19.9449ZM19.4422 41.999V43.0006H22.2958V41.999H19.4422ZM16.0028 45V46.0016H21.7478V45H16.0028ZM16.0028 48.001V49.0026H20.9541V48.001H16.0028ZM21.332 48.001V49.0026H23.7208V48.001H21.332ZM20.4892 51.002V51.9998H24.9831V51.002H20.4892ZM15.999 27.0015V27.9993H19.1474V27.0015H15.999ZM15.999 32.9997V34.0013H19.6917V32.996L15.999 32.9997ZM15.999 36.0007V37.0023H19.9449V36.0007H15.999ZM15.999 39.0017V39.9996H19.4007V39.0017H15.999ZM15.999 41.999V43.0006H18.9811V41.999H15.999Z" fill="#B4BFD8" fill-opacity="0.549"/>
<path fill-rule="evenodd" clip-rule="evenodd" d="M25.9021 45.8048C25.9021 45.8048 27.7525 45.9357 30.1331 45.7259C31.0972 45.6409 34.7575 45.2814 37.4941 44.6813C37.4941 44.6813 40.8306 43.9672 42.6156 43.3094C44.4834 42.6211 45.4997 42.0369 45.9572 41.2092C45.9373 41.0396 46.0981 40.4381 45.2367 40.0769C43.0347 39.1532 40.4808 39.3203 35.4273 39.2131C29.8232 39.0206 27.9589 38.0826 26.9659 37.3271C26.0136 36.5606 26.4924 34.4403 30.5728 32.5725C32.6282 31.5779 40.6857 29.7425 40.6857 29.7425C37.9721 28.4012 32.9121 26.0432 31.8719 25.534C30.9597 25.0875 29.4998 24.415 29.1833 23.6015C28.8245 22.8205 30.0306 22.1477 30.7044 21.955C32.8742 21.3292 35.9373 20.9401 38.7251 20.8965C40.1264 20.8745 40.3539 20.7844 40.3539 20.7844C42.2874 20.4636 43.5603 19.1408 43.03 17.0457C42.5539 14.9073 40.0429 13.6507 37.6568 14.0857C35.4098 14.4954 29.9939 16.0685 29.9939 16.0685C36.6883 16.0106 37.8088 16.1223 38.3092 16.822C38.6047 17.2352 38.1749 17.8017 36.3895 18.0933C34.4458 18.4108 30.4054 18.7931 30.4054 18.7931C26.5293 19.0233 23.799 19.0387 22.9801 20.7724C22.4451 21.9051 23.5506 22.9065 24.0351 23.5333C26.0827 25.8104 29.0403 27.0385 30.944 27.9429C31.6603 28.2832 33.762 28.9258 33.762 28.9258C27.5859 28.5861 23.1307 30.4825 20.5173 32.666C17.5615 35.4 18.8691 38.6589 24.9248 40.6654C28.5015 41.8506 30.2753 42.4079 35.6105 41.9275C38.753 41.7581 39.2484 41.8589 39.2797 42.1168C39.3238 42.4798 35.7893 43.3816 34.8244 43.66C32.3695 44.3681 25.9343 45.7979 25.9021 45.8048Z" fill="#8381C5"/>
</g>
<defs>
<clipPath id="clip0_210_2">
<rect width="64" height="64" fill="white"/>
</clipPath>
</defs>
</svg>
